# xmcd
#
# Track frame offsets:
#	150
#	31063
#	47364
#	77108
#	101344
#	119388
#	149342
#	176389
#	203110
#	229898
#	250017
#	265365
#	287438
#	309117
#
# Disc length: 4623 seconds
#
# Revision: 1
# Processed by: cddbd v1.5.1PL0 Copyright (c) Steve Scherf et al.
# Submitted via: AudioConverter v4.5 Copyright (c) AC Productions Ltd
#
DISCID=af120d0e
DTITLE=Various Artist - Classic Jazz - The 70's - Disc 1
DYEAR=2004
DGENRE=Jazz
TTITLE0=mahavishnu orchestra/meeting of the spirits
TTITLE1=gil scott-heron/lady day and john coltrane
TTITLE2=gil evans/thoroughbred
TTITLE3=ornette coleman/law years
TTITLE4=roy ayers/everybody loves the sunshine
TTITLE5=dexter gordon/the moontrane
TTITLE6=mccoy tyner/departure
TTITLE7=miles davis/medley:gemini/double image
TTITLE8=charles mingus/remember rockefeller at attica
TTITLE9=keith jarret/treasure island
TTITLE10=grover washington jr/mister magic
TTITLE11=eddie palmieri/resemblance
TTITLE12=wayne shorter/miracle of the fishes
TTITLE13=stan getz/la fiesta
EXTD=
EXTT0=
EXTT1=
EXTT2=
EXTT3=
EXTT4=
EXTT5=
EXTT6=
EXTT7=
EXTT8=
EXTT9=
EXTT10=
EXTT11=
EXTT12=
EXTT13=
PLAYORDER=
